<svg width="40" height="40" viewBox="0 0 40 40" fill="none" xmlns="http://www.w3.org/2000/svg">
<circle cx="20" cy="20" r="20" fill="#392E7F"/>
<mask id="mask0_195_15864" style="mask-type:alpha" maskUnits="userSpaceOnUse" x="0" y="0" width="40" height="40">
<circle cx="20" cy="20" r="20" fill="#392E7F"/>
</mask>
<g mask="url(#mask0_195_15864)">
<circle cx="19" cy="40" r="5" fill="white"/>
<circle cx="1" cy="22" r="5" fill="white"/>
<circle cx="5" cy="30" r="5" fill="url(#paint0_linear_195_15864)"/>
<circle cx="1" cy="16" r="2" fill="white"/>
<circle cx="13" cy="37" r="6" fill="url(#paint1_linear_195_15864)"/>
<path d="M9.50021 39C8.30021 34.2 14.5011 27.8333 16.0011 26.5L14.0008 24.5C9.60085 29.3 1.66667 30.3333 0 29L9.50021 39Z" fill="white"/>
</g>
<circle cx="30.5" cy="29.5" r="0.5" fill="#4C35DE"/>
<circle cx="5.5" cy="17.5" r="0.5" fill="#4C35DE"/>
<circle cx="10.5" cy="5.5" r="0.5" fill="#4C35DE"/>
<circle cx="23.5" cy="35.5" r="0.5" fill="#4C35DE"/>
<circle cx="38.5" cy="19.5" r="0.5" fill="#4C35DE"/>
<circle cx="36.5" cy="28.5" r="0.5" fill="#4C35DE"/>
<circle cx="28.5" cy="21.5" r="0.5" fill="#4C35DE"/>
<circle cx="26.5" cy="5.5" r="0.5" fill="#4C35DE"/>
<circle cx="12.5" cy="12.5" r="0.5" fill="#4C35DE"/>
<path d="M23.2513 23.7077C19.2567 27.7023 16.4504 27.382 14.522 25.4536C12.5936 23.5251 12.2733 20.7188 16.2679 16.7242C20.2625 12.7296 27.0593 9.05939 28.9877 10.9878C30.9162 12.9163 27.2459 19.7131 23.2513 23.7077Z" fill="url(#paint2_linear_195_15864)"/>
<path d="M20.635 26.8944C20.0506 27.9066 16.8164 31.6135 15.8041 31.0291C14.7919 30.4447 16.3851 25.7903 16.9695 24.7781C17.5539 23.7659 18.8482 23.4191 19.8604 24.0035C20.8726 24.5879 21.2194 25.8822 20.635 26.8944Z" fill="url(#paint3_linear_195_15864)"/>
<path d="M12.9673 19.2273C11.9551 19.8117 8.24821 23.046 8.83262 24.0582C9.41702 25.0704 14.0714 23.4773 15.0836 22.8929C16.0959 22.3085 16.4427 21.0142 15.8583 20.0019C15.2739 18.9897 13.9795 18.6429 12.9673 19.2273Z" fill="url(#paint4_linear_195_15864)"/>
<mask id="mask1_195_15864" style="mask-type:alpha" maskUnits="userSpaceOnUse" x="13" y="10" width="17" height="17">
<path d="M23.2514 23.7077C19.2568 27.7023 16.4505 27.382 14.5221 25.4536C12.5937 23.5251 12.2734 20.7188 16.268 16.7242C20.2626 12.7296 27.0594 9.05939 28.9879 10.9878C30.9163 12.9163 27.246 19.7131 23.2514 23.7077Z" fill="#4C35DE"/>
</mask>
<g mask="url(#mask1_195_15864)">
<circle cx="19.5103" cy="20.4652" r="7.75979" transform="rotate(45 19.5103 20.4652)" fill="#E4E0FF"/>
<ellipse cx="20.9662" cy="19.0096" rx="6.34892" ry="9.22795" transform="rotate(45 20.9662 19.0096)" fill="url(#paint5_radial_195_15864)"/>
</g>
<rect x="17.5151" y="21.4629" width="1.41087" height="8.46523" rx="0.705436" transform="rotate(45 17.5151 21.4629)" fill="#9182F8"/>
<circle cx="22.004" cy="17.9713" r="2.82174" transform="rotate(45 22.004 17.9713)" fill="#4C35DE"/>
<circle cx="22.004" cy="17.9712" r="2.11631" transform="rotate(45 22.004 17.9712)" fill="#CFC8FE"/>
<defs>
<linearGradient id="paint0_linear_195_15864" x1="5" y1="26" x2="5" y2="33.5" gradientUnits="userSpaceOnUse">
<stop stop-color="white"/>
<stop offset="1" stop-color="white" stop-opacity="0"/>
</linearGradient>
<linearGradient id="paint1_linear_195_15864" x1="14.5" y1="36" x2="5.5" y2="36.5" gradientUnits="userSpaceOnUse">
<stop stop-color="white"/>
<stop offset="1" stop-color="white" stop-opacity="0"/>
</linearGradient>
<linearGradient id="paint2_linear_195_15864" x1="28.9877" y1="10.9878" x2="26.4999" y2="13.5" gradientUnits="userSpaceOnUse">
<stop stop-color="#7A69E4"/>
<stop offset="1" stop-color="#4C35DE"/>
</linearGradient>
<linearGradient id="paint3_linear_195_15864" x1="19.8604" y1="24.0035" x2="15.8041" y2="31.0291" gradientUnits="userSpaceOnUse">
<stop stop-color="#3F27DC"/>
<stop offset="1" stop-color="#7764F2"/>
</linearGradient>
<linearGradient id="paint4_linear_195_15864" x1="15.8583" y1="20.0019" x2="8.83262" y2="24.0582" gradientUnits="userSpaceOnUse">
<stop stop-color="#3F27DC"/>
<stop offset="1" stop-color="#7764F2"/>
</linearGradient>
<radialGradient id="paint5_radial_195_15864" cx="0" cy="0" r="1" gradientUnits="userSpaceOnUse" gradientTransform="translate(21.6904 11.2007) rotate(92.4341) scale(17.0522 11.7321)">
<stop stop-color="white"/>
<stop offset="1" stop-color="#C2BAF5"/>
</radialGradient>
</defs>
</svg>
